<svg xmlns="http://www.w3.org/2000/svg" viewBox="0 0 2329 1100">
  <style>
    .tengwar { fill: #1f2328; }
    @media (prefers-color-scheme: dark) {
      .tengwar { fill: #e6edf3; }
    }
  </style>
  <g class="tengwar" transform="translate(50, 786) scale(1, -1)">
    <path d="M77 662Q65 662 37 650Q35 651 31.5 658.5Q28 666 28 670L29 672Q63 689 100.0 700.5Q137 712 153 712Q162 712 166.0 705.5Q170 699 170 680V287L175 286Q211 344 264.0 377.0Q317 410 377 410Q428 410 468.5 388.0Q509 366 532.0 325.0Q555 284 555 230Q555 184 532.0 142.5Q509 101 469 70H482Q537 70 560.5 74.5Q584 79 606 91Q609 90 613.0 83.5Q617 77 617 74L616 71Q573 34 535.5 17.0Q498 0 456 0H170Q124 0 98.0 -2.5Q72 -5 49 -12Q47 -11 43.5 -3.0Q40 5 40 9Q67 21 76.0 30.5Q85 40 87.5 58.0Q90 76 90 126V614Q90 645 87.5 653.5Q85 662 77 662ZM426 70Q477 107 477 190Q477 260 440.0 298.5Q403 337 342 337Q292 337 252.0 312.5Q212 288 170 235V70Z" transform="translate(0, 0)"/>
    <path d="M90 362Q78 362 50 350Q48 351 44.5 358.5Q41 366 41 370L42 372Q76 389 113.0 400.5Q150 412 166 412Q175 412 179.0 405.5Q183 399 183 380V287L188 286Q224 344 277.0 377.0Q330 410 390 410Q449 410 493.0 381.0Q537 352 556 300Q592 351 642.0 380.5Q692 410 749 410Q800 410 840.5 388.0Q881 366 904.0 325.0Q927 284 927 230Q927 164 893.5 109.0Q860 54 807.0 22.0Q754 -10 699 -10Q666 -10 649.5 5.5Q633 21 633 46Q633 74 652.0 88.5Q671 103 694 103Q701 103 704 102Q721 41 762 41Q799 41 824.0 80.0Q849 119 849 180Q849 254 812.0 295.5Q775 337 714 337Q671 337 635.5 319.0Q600 301 566 263Q568 241 568 230Q568 164 534.5 109.0Q501 54 448.0 22.0Q395 -10 340 -10Q307 -10 290.5 5.5Q274 21 274 46Q274 74 293.0 88.5Q312 103 335 103Q342 103 345 102Q362 41 403 41Q440 41 465.0 80.0Q490 119 490 180Q490 254 453.0 295.5Q416 337 355 337Q305 337 265.0 312.5Q225 288 183 235V76Q183 53 181.0 43.5Q179 34 171.5 29.0Q164 24 145 17L62 -12Q60 -11 56.5 -3.0Q53 5 53 9Q80 21 89.0 30.5Q98 40 100.5 58.0Q103 76 103 126V314Q103 345 100.5 353.5Q98 362 90 362Z" transform="translate(637, 0)"/>
    <path d="M20 480 192 673Q203 673 225.0 652.0Q247 631 247 619L34 461Q30 461 25.0 468.0Q20 475 20 480Z" transform="translate(1004, 0)"/>
    <path d="M20 -139Q48 -120 77.0 -111.0Q106 -102 147 -102H385Q438 -102 459 -96Q462 -97 465.0 -103.5Q468 -110 468 -115Q440 -134 411.0 -143.0Q382 -152 341 -152H103Q50 -152 29 -158Q26 -157 23.0 -150.5Q20 -144 20 -139Z" transform="translate(873, 0)"/>
    <path d="M77 662Q65 662 37 650Q35 651 31.5 658.5Q28 666 28 670L29 672Q63 689 100.0 700.5Q137 712 153 712Q162 712 166.0 705.5Q170 699 170 680V287L175 286Q211 344 264.0 377.0Q317 410 377 410Q428 410 468.5 388.0Q509 366 532.0 325.0Q555 284 555 230Q555 164 521.5 109.0Q488 54 435.0 22.0Q382 -10 327 -10Q294 -10 277.5 5.5Q261 21 261 46Q261 74 280.0 88.5Q299 103 322 103Q329 103 332 102Q349 41 390 41Q427 41 452.0 80.0Q477 119 477 180Q477 254 440.0 295.5Q403 337 342 337Q292 337 252.0 312.5Q212 288 170 235V76Q170 53 168.0 43.5Q166 34 158.5 29.0Q151 24 132 17L49 -12Q47 -11 43.5 -3.0Q40 5 40 9Q67 21 76.0 30.5Q85 40 87.5 58.0Q90 76 90 126V614Q90 645 87.5 653.5Q85 662 77 662Z" transform="translate(1624, 0)"/>
    <path d="M109 623Q109 635 128.0 654.0Q147 673 159 673Q171 673 190.0 654.0Q209 635 209 623Q209 611 190.0 592.0Q171 573 159 573Q147 573 128.0 592.0Q109 611 109 623ZM20 533Q20 545 39.0 564.0Q58 583 70 583Q82 583 101.0 564.0Q120 545 120 533Q120 521 101.0 502.0Q82 483 70 483Q58 483 39.0 502.0Q20 521 20 533ZM198 533Q198 545 217.0 564.0Q236 583 248 583Q260 583 279.0 564.0Q298 545 298 533Q298 521 279.0 502.0Q260 483 248 483Q236 483 217.0 502.0Q198 521 198 533Z" transform="translate(1820, 0)"/>
  </g>
</svg>
